<?xml version="1.0" standalone="no"?>
<!DOCTYPE svg PUBLIC "-//W3C//DTD SVG 20010904//EN"
 "http://www.w3.org/TR/2001/REC-SVG-20010904/DTD/svg10.dtd">
<svg version="1.0" xmlns="http://www.w3.org/2000/svg"
 width="1120.000000pt" height="1120.000000pt" viewBox="0 0 1120.000000 1120.000000"
 preserveAspectRatio="xMidYMid meet">

<g transform="translate(0.000000,1120.000000) scale(0.100000,-0.100000)"
fill="#000000" stroke="none">
<path d="M4852 6474 c-43 -39 -62 -63 -62 -80 0 -15 25 -52 74 -106 61 -69 88
-91 162 -130 80 -42 100 -59 183 -153 51 -58 97 -105 102 -105 8 0 41 18 68
37 2 1 -44 53 -102 114 -88 94 -109 122 -127 173 -11 34 -28 81 -37 105 -21
59 -146 201 -177 201 -13 0 -47 -23 -84 -56z m200 -191 c15 -34 28 -65 28 -68
0 -18 -89 48 -147 108 l-66 68 33 28 34 28 44 -51 c25 -28 58 -78 74 -113z"/>
<path d="M6343 6463 c-75 -79 -86 -99 -124 -210 -27 -80 -33 -89 -139 -200
l-110 -117 41 -14 41 -14 100 106 c86 92 111 111 183 147 67 33 101 59 165
124 55 57 80 90 80 107 0 16 -19 43 -58 81 -79 78 -95 77 -179 -10z m130 -41
l27 -28 -44 -50 c-47 -53 -148 -129 -164 -123 -20 8 33 113 86 170 30 33 57
59 61 59 4 0 19 -13 34 -28z"/>
<path d="M4247 6323 c-2 -4 -12 -33 -21 -64 -17 -60 -62 -111 -126 -144 -32
-16 -32 -16 -24 7 4 13 8 34 8 48 1 20 -5 26 -26 28 -23 3 -29 -3 -46 -40 -25
-55 -44 -72 -117 -99 -57 -21 -103 -57 -135 -107 -9 -13 -51 -36 -105 -58
-104 -42 -115 -49 -115 -76 0 -25 38 -98 50 -98 6 0 10 -12 10 -27 0 -50 67
-123 112 -123 24 0 39 31 27 53 -20 34 17 46 72 23 15 -7 69 27 69 44 0 5 -15
14 -34 20 -19 6 -40 17 -46 25 -10 12 -6 15 17 20 15 4 33 8 40 10 6 2 37 -3
70 -10 82 -20 104 -18 157 10 26 14 49 25 51 25 2 0 7 -19 10 -43 9 -56 -8
-94 -79 -189 -68 -90 -86 -132 -86 -198 0 -41 5 -55 29 -82 l29 -33 1634 0
c898 0 1666 3 1707 7 125 13 221 73 262 163 23 50 25 101 3 109 -34 13 -45 4
-70 -53 -47 -107 -124 -141 -324 -141 -117 0 -130 2 -156 23 l-29 22 159 5
c137 4 160 7 170 23 8 12 8 22 0 35 -10 15 -36 17 -272 20 -253 2 -261 2 -272
-18 -17 -32 4 -60 44 -60 22 0 40 -8 56 -25 l23 -25 -146 0 -147 0 0 90 0 90
25 -16 c20 -13 25 -24 23 -47 -2 -20 3 -33 15 -41 15 -9 22 -6 43 19 35 43 30
67 -25 133 -81 97 -82 98 -207 96 -60 -1 -113 -2 -117 -3 -5 -1 -44 -35 -87
-76 -43 -41 -83 -75 -89 -75 -5 0 -46 35 -91 77 l-81 76 -116 2 -116 1 -84
-79 c-96 -90 -79 -91 -185 12 l-67 65 -108 1 c-68 1 -117 -3 -133 -11 -14 -7
-54 -42 -90 -78 -35 -36 -68 -66 -73 -66 -5 0 -34 24 -65 53 -118 108 -98 99
-224 102 l-113 3 -68 -71 c-37 -40 -70 -82 -74 -95 -3 -14 1 -39 11 -59 13
-28 21 -34 44 -31 24 3 27 6 24 39 -2 30 2 39 23 53 l25 16 0 -90 0 -90 -317
2 -318 3 -3 38 c-4 43 17 83 93 182 86 114 94 240 19 306 -40 35 -61 33 -103
-11 -37 -40 -43 -42 -83 -37 -160 21 -150 21 -244 -16 -65 -26 -92 -33 -101
-25 -7 6 -13 14 -13 19 0 4 42 28 94 53 80 39 97 51 113 83 27 57 82 79 233
97 69 8 127 12 130 10 10 -11 -19 -38 -51 -49 -48 -17 -47 -49 1 -53 46 -4 99
31 123 81 10 20 26 37 35 37 33 0 101 42 125 78 28 40 50 121 41 146 -7 19
-38 21 -51 4 -6 -7 -16 -31 -23 -53 -22 -71 -82 -115 -157 -115 -21 0 -20 2
12 50 52 77 61 162 18 168 -11 2 -23 0 -26 -5z m-527 -617 c0 -15 -29 -30 -39
-20 -3 3 3 12 13 20 24 17 26 17 26 0z m1293 -268 c-8 -43 20 -47 68 -9 l40
32 35 -31 c46 -40 70 -36 66 9 -2 32 19 71 40 71 4 0 8 -40 8 -90 l0 -90 -155
0 -155 0 0 91 0 91 29 -24 c23 -18 28 -29 24 -50z m552 50 c15 -13 23 -28 20
-38 -7 -21 3 -50 17 -50 5 0 27 14 48 31 l39 32 36 -32 c20 -17 45 -31 57 -31
18 0 20 4 15 37 -6 36 12 73 35 73 4 0 8 -40 8 -90 l0 -90 -155 0 -155 0 0 90
c0 50 2 90 5 90 3 0 16 -10 30 -22z m588 -49 c-9 -45 19 -47 69 -5 l42 36 36
-35 c48 -47 70 -46 70 2 0 34 22 73 42 73 4 0 8 -40 8 -90 l0 -90 -161 0 -160
0 2 67 c1 37 5 77 7 90 l5 24 23 -22 c17 -16 22 -28 17 -50z"/>
<path d="M4553 6122 c-6 -4 -21 -33 -33 -65 -33 -89 -69 -111 -189 -117 -87
-5 -96 -7 -96 -25 0 -29 42 -45 120 -45 86 0 139 22 183 76 40 48 71 138 56
162 -13 19 -25 24 -41 14z"/>
<path d="M3911 5935 c-17 -15 -31 -31 -31 -35 0 -5 21 -12 47 -16 43 -6 49 -5
70 21 31 35 25 49 -19 53 -26 2 -43 -4 -67 -23z"/>
<path d="M4783 5885 c-38 -16 -53 -42 -53 -92 1 -84 98 -134 163 -83 62 49 52
146 -17 175 -43 18 -52 18 -93 0z"/>
<path d="M5373 5879 c-71 -35 -82 -113 -21 -164 71 -60 168 -8 168 90 0 38
-35 85 -64 85 -8 0 -20 2 -28 5 -7 3 -32 -4 -55 -16z"/>
<path d="M6514 5891 c-70 -30 -83 -122 -23 -175 27 -24 38 -27 72 -23 58 8 92
45 92 102 0 34 -6 50 -25 69 -28 27 -84 40 -116 27z"/>
<path d="M5899 5861 c-42 -42 -40 -92 5 -137 25 -25 43 -34 68 -34 68 0 116
65 97 134 -19 69 -116 90 -170 37z"/>
<path d="M3617 5213 c-4 -3 -7 -23 -7 -42 0 -61 -22 -81 -89 -81 -75 0 -103
-27 -65 -64 11 -12 35 -16 84 -16 59 0 73 4 100 26 l31 27 22 -21 c76 -71 236
-69 332 3 l34 27 38 -30 c50 -39 93 -52 167 -52 65 0 134 25 174 62 l22 22 28
-27 c36 -34 102 -57 166 -57 69 0 114 14 162 49 l39 30 32 -25 c45 -34 106
-54 168 -54 64 0 108 14 159 51 39 29 40 29 60 10 87 -81 276 -81 363 1 l22
20 33 -26 c97 -73 270 -74 338 -1 l23 25 35 -27 c49 -37 97 -52 167 -52 64 -1
132 24 173 61 l22 21 23 -21 c85 -80 254 -83 355 -6 l34 26 26 -25 c37 -35
103 -57 171 -57 67 1 118 18 167 55 l35 27 22 -20 c41 -37 91 -55 164 -60 63
-4 79 -1 126 21 56 28 95 71 100 109 3 35 -56 38 -92 5 -39 -37 -65 -47 -118
-47 -76 1 -126 29 -149 84 -30 72 -67 72 -108 0 -32 -58 -77 -84 -145 -84 -77
0 -119 23 -149 83 -21 39 -29 47 -53 47 -22 0 -32 -8 -51 -42 -35 -63 -67 -82
-146 -86 -57 -3 -72 0 -102 20 -19 12 -44 42 -55 66 -17 37 -23 42 -52 42 -29
0 -35 -5 -57 -49 -32 -63 -76 -85 -156 -79 -72 5 -106 27 -132 84 -18 41 -22
45 -51 42 -27 -3 -35 -10 -55 -51 -26 -56 -64 -77 -139 -77 -66 0 -113 27
-140 80 -13 24 -30 48 -38 53 -24 13 -52 -1 -65 -32 -6 -16 -27 -44 -46 -62
-34 -33 -38 -34 -114 -34 -93 0 -124 17 -155 83 -18 38 -23 43 -49 40 -23 -2
-36 -13 -56 -48 -35 -61 -77 -82 -157 -78 -75 5 -110 26 -138 86 -17 38 -23
43 -49 40 -22 -2 -35 -12 -52 -43 -33 -60 -64 -78 -137 -83 -82 -4 -123 17
-156 82 -21 43 -27 47 -55 44 -24 -2 -35 -11 -47 -38 -26 -54 -62 -82 -113
-87 -93 -11 -159 22 -194 96 -25 53 -58 50 -92 -9 -38 -65 -80 -90 -149 -90
-80 0 -120 24 -150 88 -22 46 -28 52 -56 52 -18 0 -35 -3 -38 -7z"/>
<path d="M4320 4771 c-87 -27 -174 -104 -213 -189 -33 -72 -31 -198 4 -273 35
-73 85 -128 151 -164 44 -24 68 -30 138 -33 114 -5 181 19 255 93 69 70 98
141 98 247 1 66 -4 85 -32 142 -60 122 -166 187 -304 185 -40 0 -83 -4 -97 -8z
m196 -133 c119 -56 148 -231 56 -338 -44 -52 -84 -70 -157 -70 -141 0 -228
119 -197 269 6 29 23 68 36 86 56 73 171 96 262 53z"/>
<path d="M5902 4762 c-94 -34 -178 -123 -203 -215 -18 -68 -8 -194 21 -252 31
-63 92 -124 155 -156 43 -21 64 -24 150 -24 83 0 107 4 140 22 71 38 123 91
157 160 28 58 32 75 31 148 0 65 -5 93 -25 137 -33 72 -84 127 -150 163 -70
38 -194 46 -276 17z m238 -137 c55 -38 80 -95 80 -180 0 -91 -26 -147 -88
-186 -37 -23 -57 -29 -103 -29 -71 0 -104 12 -148 53 -45 43 -61 84 -61 155 0
104 35 165 115 204 58 27 152 20 205 -17z"/>
<path d="M4875 4757 c-3 -7 -4 -152 -3 -322 l3 -310 54 -3 c37 -2 57 1 62 10
5 7 9 59 9 116 l0 103 37 -3 c36 -3 40 -7 104 -113 l67 -110 61 -3 c79 -4 79
1 -4 143 l-63 109 37 22 c41 25 76 80 86 136 15 82 -38 179 -122 222 -42 21
-321 24 -328 3z m300 -132 c32 -31 34 -91 4 -129 -19 -24 -26 -26 -100 -26
l-79 0 0 90 0 90 75 0 c67 0 79 -3 100 -25z"/>
<path d="M5450 4445 l0 -325 59 0 c52 0 59 2 65 23 8 29 8 591 0 611 -5 12
-21 16 -65 16 l-59 0 0 -325z"/>
<path d="M6466 4754 c-3 -9 -6 -148 -6 -309 0 -161 3 -300 6 -309 5 -12 21
-16 65 -16 l59 0 0 205 c0 113 3 205 8 205 4 -1 75 -92 157 -203 l150 -202 52
-3 52 -3 3 123 c2 68 4 213 3 323 l0 200 -60 0 -60 0 -5 -205 -5 -205 -155
207 -155 208 -51 0 c-38 0 -53 -4 -58 -16z"/>
<path d="M4130 3910 l0 -80 45 0 c35 0 52 6 70 25 57 56 10 135 -80 135 l-35
0 0 -80z m94 24 c11 -29 6 -53 -13 -64 -34 -18 -41 -11 -41 35 0 41 2 45 24
45 13 0 27 -7 30 -16z"/>
<path d="M4298 3973 c-2 -10 -6 -46 -7 -80 -2 -58 -1 -63 18 -63 16 0 21 6 21
25 0 14 4 25 9 25 5 0 16 -11 25 -25 9 -14 25 -25 36 -25 19 0 20 1 5 24 -15
23 -15 27 1 51 16 25 16 27 -3 53 -25 34 -97 45 -105 15z m71 -27 c9 -10 8
-16 -4 -26 -19 -16 -41 1 -32 24 8 20 21 20 36 2z"/>
<path d="M4471 3936 c-35 -94 -36 -106 -12 -106 12 0 21 6 21 15 0 10 10 15
29 15 16 0 31 -6 35 -15 6 -16 36 -21 36 -7 0 26 -59 147 -72 150 -11 2 -22
-13 -37 -52z m49 -26 c0 -11 -6 -20 -14 -20 -9 0 -12 7 -9 20 3 11 9 20 14 20
5 0 9 -9 9 -20z"/>
<path d="M4635 3978 c-50 -29 -60 -84 -21 -123 19 -19 34 -24 75 -23 l51 1 0
39 c0 36 -2 38 -30 38 -20 0 -30 -5 -30 -15 0 -8 6 -15 13 -15 6 0 4 -5 -5
-11 -28 -16 -58 6 -58 41 0 36 30 56 59 40 27 -14 41 -13 41 5 0 30 -58 44
-95 23z"/>
<path d="M4799 3977 c-42 -32 -49 -81 -18 -121 44 -56 139 -21 139 53 0 61
-75 103 -121 68z m79 -64 c5 -55 -61 -70 -74 -17 -8 32 13 56 45 52 21 -2 27
-9 29 -35z"/>
<path d="M4950 3910 c0 -64 3 -80 15 -80 11 0 15 12 15 46 l0 47 35 -47 c57
-73 74 -62 71 44 -1 53 -5 65 -19 68 -14 3 -17 -4 -17 -37 0 -23 -4 -41 -9
-41 -4 0 -20 18 -35 40 -42 64 -56 54 -56 -40z"/>
<path d="M5170 3910 l0 -80 49 0 c63 0 74 13 65 82 -9 68 -17 78 -70 78 l-44
0 0 -80z m69 41 c16 -10 6 -31 -14 -31 -17 0 -28 17 -20 30 8 12 16 12 34 1z
m9 -68 c5 -17 -26 -29 -40 -15 -6 6 -7 15 -3 22 9 14 37 9 43 -7z"/>
<path d="M5347 3979 c-29 -17 -46 -67 -35 -101 22 -63 112 -67 143 -7 21 40
19 57 -14 90 -31 30 -63 36 -94 18z m71 -41 c20 -20 14 -46 -14 -64 -24 -16
-26 -16 -46 4 -19 18 -20 25 -10 47 13 27 49 34 70 13z"/>
<path d="M5531 3972 c-13 -24 -51 -125 -51 -134 0 -15 38 -8 44 7 3 8 14 15
24 15 11 0 25 -7 32 -15 15 -18 54 -20 47 -2 -59 149 -74 169 -96 129z m27
-81 c-15 -5 -19 4 -11 24 6 18 7 18 13 -1 4 -10 3 -21 -2 -23z"/>
<path d="M5615 3980 c-9 -15 4 -30 26 -30 17 0 19 -7 19 -60 0 -47 3 -60 15
-60 12 0 15 13 15 59 0 54 2 60 22 63 13 2 24 11 26 21 3 15 -5 17 -57 17 -33
0 -63 -4 -66 -10z"/>
<path d="M5827 3983 c-4 -3 -7 -39 -7 -80 0 -67 2 -73 20 -73 12 0 20 6 19 13
-5 43 15 51 33 12 6 -14 19 -25 30 -25 22 0 23 9 2 39 -16 22 -16 24 0 33 21
12 20 51 -2 71 -18 17 -82 23 -95 10z m73 -43 c0 -13 -7 -20 -20 -20 -13 0
-20 7 -20 20 0 13 7 20 20 20 13 0 20 -7 20 -20z"/>
<path d="M6013 3973 c-3 -10 -17 -45 -29 -77 -13 -33 -24 -61 -24 -63 0 -11
39 0 44 12 3 8 17 15 31 15 14 0 28 -7 31 -15 4 -8 15 -15 26 -15 24 0 21 17
-17 103 -25 58 -50 73 -62 40z m37 -75 c0 -5 -6 -8 -14 -8 -9 0 -12 7 -9 21 4
16 8 17 14 7 5 -7 9 -16 9 -20z"/>
<path d="M6146 3964 c-32 -32 -34 -72 -5 -108 23 -30 72 -35 105 -12 27 20 6
43 -25 27 -49 -27 -85 41 -39 73 15 11 26 12 39 6 38 -21 53 -5 23 24 -24 24
-68 20 -98 -10z"/>
<path d="M6287 3983 c-4 -3 -7 -39 -7 -80 l0 -73 56 0 c40 0 55 4 52 13 -3 6
-19 13 -36 15 -24 2 -32 8 -32 23 0 11 6 19 13 18 29 -4 48 2 44 14 -2 7 -15
11 -30 9 -22 -3 -27 1 -27 17 0 17 6 21 35 21 24 0 35 5 35 15 0 11 -12 15
-48 15 -27 0 -52 -3 -55 -7z"/>
<path d="M6556 3971 c-21 -23 -8 -34 29 -25 38 9 33 -21 -10 -59 -51 -44 -46
-57 21 -57 40 0 55 4 52 13 -3 6 -14 13 -26 15 -28 4 -27 6 3 36 29 29 32 58
9 80 -21 22 -57 20 -78 -3z"/>
<path d="M6692 3970 c-46 -43 -20 -140 38 -140 36 0 57 21 66 66 13 70 -56
119 -104 74z m66 -56 c4 -38 -20 -63 -43 -44 -29 24 -15 83 19 78 15 -2 22
-11 24 -34z"/>
<path d="M6834 3976 c-15 -12 -16 -17 -7 -27 10 -10 15 -9 28 1 12 10 19 10
27 2 8 -8 0 -23 -31 -57 -23 -25 -39 -50 -36 -55 10 -16 105 -12 105 4 0 8
-12 17 -26 20 l-27 7 32 33 c36 37 38 47 13 69 -23 21 -52 22 -78 3z"/>
<path d="M6957 3984 c-4 -4 -7 -25 -7 -46 0 -37 1 -38 35 -38 29 0 35 -4 35
-20 0 -18 -5 -20 -35 -18 -41 4 -50 -13 -14 -26 38 -13 78 0 85 28 9 37 -12
66 -46 66 -20 0 -30 5 -30 15 0 11 11 15 36 15 24 0 34 4 32 13 -5 13 -79 22
-91 11z"/>
</g>
</svg>
