<?xml version="1.0" standalone="no"?>
<!DOCTYPE svg PUBLIC "-//W3C//DTD SVG 20010904//EN"
 "http://www.w3.org/TR/2001/REC-SVG-20010904/DTD/svg10.dtd">
<svg version="1.0" xmlns="http://www.w3.org/2000/svg"
 width="1120.000000pt" height="1120.000000pt" viewBox="0 0 1120.000000 1120.000000"
 preserveAspectRatio="xMidYMid meet">

<g transform="translate(0.000000,1120.000000) scale(0.100000,-0.100000)"
fill="#000000" stroke="none">
<path d="M4852 6474 c-43 -39 -62 -63 -62 -80 0 -15 25 -52 74 -106 61 -69 88
-91 162 -130 80 -42 100 -59 183 -153 51 -58 97 -105 102 -105 8 0 41 18 68
37 2 1 -44 53 -102 114 -88 94 -109 122 -127 173 -11 34 -28 81 -37 105 -21
59 -146 201 -177 201 -13 0 -47 -23 -84 -56z m200 -191 c15 -34 28 -65 28 -68
0 -18 -89 48 -147 108 l-66 68 33 28 34 28 44 -51 c25 -28 58 -78 74 -113z"/>
<path d="M6343 6463 c-75 -79 -86 -99 -124 -210 -27 -80 -33 -89 -139 -200
l-110 -117 41 -14 41 -14 100 106 c86 92 111 111 183 147 67 33 101 59 165
124 55 57 80 90 80 107 0 16 -19 43 -58 81 -79 78 -95 77 -179 -10z m130 -41
l27 -28 -44 -50 c-47 -53 -148 -129 -164 -123 -20 8 33 113 86 170 30 33 57
59 61 59 4 0 19 -13 34 -28z"/>
<path d="M4247 6323 c-2 -4 -12 -33 -21 -64 -17 -60 -62 -111 -126 -144 -32
-16 -32 -16 -24 7 4 13 8 34 8 48 1 20 -5 26 -26 28 -23 3 -29 -3 -46 -40 -25
-55 -44 -72 -117 -99 -57 -21 -103 -57 -135 -107 -9 -13 -51 -36 -105 -58
-104 -42 -115 -49 -115 -76 0 -25 38 -98 50 -98 6 0 10 -12 10 -27 0 -50 67
-123 112 -123 24 0 39 31 27 53 -20 34 17 46 72 23 15 -7 69 27 69 44 0 5 -15
14 -34 20 -19 6 -40 17 -46 25 -10 12 -6 15 17 20 15 4 33 8 40 10 6 2 37 -3
70 -10 82 -20 104 -18 157 10 26 14 49 25 51 25 2 0 7 -19 10 -43 9 -56 -8
-94 -79 -189 -68 -90 -86 -132 -86 -198 0 -41 5 -55 29 -82 l29 -33 1634 0
c898 0 1666 3 1707 7 125 13 221 73 262 163 23 50 25 101 3 109 -34 13 -45 4
-70 -53 -47 -107 -124 -141 -324 -141 -117 0 -130 2 -156 23 l-29 22 159 5
c137 4 160 7 170 23 8 12 8 22 0 35 -10 15 -36 17 -272 20 -253 2 -261 2 -272
-18 -17 -32 4 -60 44 -60 22 0 40 -8 56 -25 l23 -25 -146 0 -147 0 0 90 0 90
25 -16 c20 -13 25 -24 23 -47 -2 -20 3 -33 15 -41 15 -9 22 -6 43 19 35 43 30
67 -25 133 -81 97 -82 98 -207 96 -60 -1 -113 -2 -117 -3 -5 -1 -44 -35 -87
-76 -43 -41 -83 -75 -89 -75 -5 0 -46 35 -91 77 l-81 76 -116 2 -116 1 -84
-79 c-96 -90 -79 -91 -185 12 l-67 65 -108 1 c-68 1 -117 -3 -133 -11 -14 -7
-54 -42 -90 -78 -35 -36 -68 -66 -73 -66 -5 0 -34 24 -65 53 -118 108 -98 99
-224 102 l-113 3 -68 -71 c-37 -40 -70 -82 -74 -95 -3 -14 1 -39 11 -59 13
-28 21 -34 44 -31 24 3 27 6 24 39 -2 30 2 39 23 53 l25 16 0 -90 0 -90 -317
2 -318 3 -3 38 c-4 43 17 83 93 182 86 114 94 240 19 306 -40 35 -61 33 -103
-11 -37 -40 -43 -42 -83 -37 -160 21 -150 21 -244 -16 -65 -26 -92 -33 -101
-25 -7 6 -13 14 -13 19 0 4 42 28 94 53 80 39 97 51 113 83 27 57 82 79 233
97 69 8 127 12 130 10 10 -11 -19 -38 -51 -49 -48 -17 -47 -49 1 -53 46 -4 99
31 123 81 10 20 26 37 35 37 33 0 101 42 125 78 28 40 50 121 41 146 -7 19
-38 21 -51 4 -6 -7 -16 -31 -23 -53 -22 -71 -82 -115 -157 -115 -21 0 -20 2
12 50 52 77 61 162 18 168 -11 2 -23 0 -26 -5z m-527 -617 c0 -15 -29 -30 -39
-20 -3 3 3 12 13 20 24 17 26 17 26 0z m1293 -268 c-8 -43 20 -47 68 -9 l40
32 35 -31 c46 -40 70 -36 66 9 -2 32 19 71 40 71 4 0 8 -40 8 -90 l0 -90 -155
0 -155 0 0 91 0 91 29 -24 c23 -18 28 -29 24 -50z m552 50 c15 -13 23 -28 20
-38 -7 -21 3 -50 17 -50 5 0 27 14 48 31 l39 32 36 -32 c20 -17 45 -31 57 -31
18 0 20 4 15 37 -6 36 12 73 35 73 4 0 8 -40 8 -90 l0 -90 -155 0 -155 0 0 90
c0 50 2 90 5 90 3 0 16 -10 30 -22z m588 -49 c-9 -45 19 -47 69 -5 l42 36 36
-35 c48 -47 70 -46 70 2 0 34 22 73 42 73 4 0 8 -40 8 -90 l0 -90 -161 0 -160
0 2 67 c1 37 5 77 7 90 l5 24 23 -22 c17 -16 22 -28 17 -50z"/>
<path d="M4553 6122 c-6 -4 -21 -33 -33 -65 -33 -89 -69 -111 -189 -117 -87
-5 -96 -7 -96 -25 0 -29 42 -45 120 -45 86 0 139 22 183 76 40 48 71 138 56
162 -13 19 -25 24 -41 14z"/>
<path d="M3911 5935 c-17 -15 -31 -31 -31 -35 0 -5 21 -12 47 -16 43 -6 49 -5
70 21 31 35 25 49 -19 53 -26 2 -43 -4 -67 -23z"/>
<path d="M4783 5885 c-38 -16 -53 -42 -53 -92 1 -84 98 -134 163 -83 62 49 52
146 -17 175 -43 18 -52 18 -93 0z"/>
<path d="M5373 5879 c-71 -35 -82 -113 -21 -164 71 -60 168 -8 168 90 0 38
-35 85 -64 85 -8 0 -20 2 -28 5 -7 3 -32 -4 -55 -16z"/>
<path d="M6514 5891 c-70 -30 -83 -122 -23 -175 27 -24 38 -27 72 -23 58 8 92
45 92 102 0 34 -6 50 -25 69 -28 27 -84 40 -116 27z"/>
<path d="M5899 5861 c-42 -42 -40 -92 5 -137 25 -25 43 -34 68 -34 68 0 116
65 97 134 -19 69 -116 90 -170 37z"/>
<path d="M3617 5213 c-4 -3 -7 -23 -7 -42 0 -61 -22 -81 -89 -81 -75 0 -103
-27 -65 -64 11 -12 35 -16 84 -16 59 0 73 4 100 26 l31 27 22 -21 c76 -71 236
-69 332 3 l34 27 38 -30 c50 -39 93 -52 167 -52 65 0 134 25 174 62 l22 22 28
-27 c36 -34 102 -57 166 -57 69 0 114 14 162 49 l39 30 32 -25 c45 -34 106
-54 168 -54 64 0 108 14 159 51 39 29 40 29 60 10 87 -81 276 -81 363 1 l22
20 33 -26 c97 -73 270 -74 338 -1 l23 25 35 -27 c49 -37 97 -52 167 -52 64 -1
132 24 173 61 l22 21 23 -21 c85 -80 254 -83 355 -6 l34 26 26 -25 c37 -35
103 -57 171 -57 67 1 118 18 167 55 l35 27 22 -20 c41 -37 91 -55 164 -60 63
-4 79 -1 126 21 56 28 95 71 100 109 3 35 -56 38 -92 5 -39 -37 -65 -47 -118
-47 -76 1 -126 29 -149 84 -30 72 -67 72 -108 0 -32 -58 -77 -84 -145 -84 -77
0 -119 23 -149 83 -21 39 -29 47 -53 47 -22 0 -32 -8 -51 -42 -35 -63 -67 -82
-146 -86 -57 -3 -72 0 -102 20 -19 12 -44 42 -55 66 -17 37 -23 42 -52 42 -29
0 -35 -5 -57 -49 -32 -63 -76 -85 -156 -79 -72 5 -106 27 -132 84 -18 41 -22
45 -51 42 -27 -3 -35 -10 -55 -51 -26 -56 -64 -77 -139 -77 -66 0 -113 27
-140 80 -13 24 -30 48 -38 53 -24 13 -52 -1 -65 -32 -6 -16 -27 -44 -46 -62
-34 -33 -38 -34 -114 -34 -93 0 -124 17 -155 83 -18 38 -23 43 -49 40 -23 -2
-36 -13 -56 -48 -35 -61 -77 -82 -157 -78 -75 5 -110 26 -138 86 -17 38 -23
43 -49 40 -22 -2 -35 -12 -52 -43 -33 -60 -64 -78 -137 -83 -82 -4 -123 17
-156 82 -21 43 -27 47 -55 44 -24 -2 -35 -11 -47 -38 -26 -54 -62 -82 -113
-87 -93 -11 -159 22 -194 96 -25 53 -58 50 -92 -9 -38 -65 -80 -90 -149 -90
-80 0 -120 24 -150 88 -22 46 -28 52 -56 52 -18 0 -35 -3 -38 -7z"/>
<path d="M4320 4771 c-87 -27 -174 -104 -213 -189 -33 -72 -31 -198 4 -273 35
-73 85 -128 151 -164 44 -24 68 -30 138 -33 114 -5 181 19 255 93 69 70 98
141 98 247 1 66 -4 85 -32 142 -60 122 -166 187 -304 185 -40 0 -83 -4 -97 -8z
m196 -133 c119 -56 148 -231 56 -338 -44 -52 -84 -70 -157 -70 -141 0 -228
119 -197 269 6 29 23 68 36 86 56 73 171 96 262 53z"/>
<path d="M5902 4762 c-94 -34 -178 -123 -203 -215 -18 -68 -8 -194 21 -252 31
-63 92 -124 155 -156 43 -21 64 -24 150 -24 83 0 107 4 140 22 71 38 123 91
157 160 28 58 32 75 31 148 0 65 -5 93 -25 137 -33 72 -84 127 -150 163 -70
38 -194 46 -276 17z m238 -137 c55 -38 80 -95 80 -180 0 -91 -26 -147 -88
-186 -37 -23 -57 -29 -103 -29 -71 0 -104 12 -148 53 -45 43 -61 84 -61 155 0
104 35 165 115 204 58 27 152 20 205 -17z"/>
<path d="M4875 4757 c-3 -7 -4 -152 -3 -322 l3 -310 54 -3 c37 -2 57 1 62 10
5 7 9 59 9 116 l0 103 37 -3 c36 -3 40 -7 104 -113 l67 -110 61 -3 c79 -4 79
1 -4 143 l-63 109 37 22 c41 25 76 80 86 136 15 82 -38 179 -122 222 -42 21
-321 24 -328 3z m300 -132 c32 -31 34 -91 4 -129 -19 -24 -26 -26 -100 -26
l-79 0 0 90 0 90 75 0 c67 0 79 -3 100 -25z"/>
<path d="M5450 4445 l0 -325 59 0 c52 0 59 2 65 23 8 29 8 591 0 611 -5 12
-21 16 -65 16 l-59 0 0 -325z"/>
<path d="M6466 4754 c-3 -9 -6 -148 -6 -309 0 -161 3 -300 6 -309 5 -12 21
-16 65 -16 l59 0 0 205 c0 113 3 205 8 205 4 -1 75 -92 157 -203 l150 -202 52
-3 52 -3 3 123 c2 68 4 213 3 323 l0 200 -60 0 -60 0 -5 -205 -5 -205 -155
207 -155 208 -51 0 c-38 0 -53 -4 -58 -16z"/>
<path d="M4005 3948 c-3 -8 -4 -59 -3 -114 l3 -99 51 -3 c94 -5 149 44 141
127 -7 67 -40 94 -122 99 -50 3 -66 1 -70 -10z m127 -55 c21 -19 23 -60 5 -85
-19 -24 -67 -34 -78 -17 -10 16 -12 80 -3 103 8 21 52 20 76 -1z"/>
<path d="M4245 3948 c-6 -20 -12 -192 -8 -205 7 -18 40 -16 47 3 3 9 6 27 6
40 0 22 3 23 20 14 11 -6 20 -17 20 -24 0 -19 33 -46 58 -46 26 0 37 16 17 24
-8 3 -15 12 -15 21 0 8 -4 15 -10 15 -16 0 -12 18 10 40 27 27 25 71 -5 104
-20 22 -32 26 -80 26 -36 0 -57 -4 -60 -12z m109 -53 c7 -18 -21 -47 -43 -43
-9 2 -17 15 -19 31 -3 24 0 27 26 27 17 0 32 -6 36 -15z"/>
<path d="M4512 3948 c-5 -7 -13 -29 -17 -48 -4 -19 -11 -41 -16 -50 -16 -27
-38 -103 -33 -112 9 -15 45 -8 51 10 15 41 77 46 95 7 11 -24 41 -34 52 -16 6
8 -8 48 -40 118 -8 17 -14 36 -14 42 0 5 -5 22 -12 36 -12 27 -48 34 -66 13z
m48 -103 c0 -18 -5 -25 -19 -25 -14 0 -17 6 -13 25 2 14 11 25 18 25 8 0 14
-10 14 -25z"/>
<path d="M4712 3940 c-36 -22 -52 -54 -52 -104 0 -34 35 -86 58 -86 7 0 12 -4
12 -10 0 -14 53 -13 68 2 9 9 17 8 37 -2 37 -20 47 -4 39 59 l-7 51 -38 0
c-32 0 -39 -3 -39 -20 0 -11 5 -20 10 -20 18 0 10 -19 -10 -25 -13 -4 -31 0
-45 9 -20 13 -25 25 -25 56 0 31 5 43 25 56 24 16 65 12 65 -7 0 -5 11 -9 25
-9 36 0 33 35 -5 55 -40 20 -79 19 -118 -5z"/>
<path d="M4959 3945 c-66 -36 -75 -128 -18 -185 25 -24 39 -30 74 -30 37 0 49
5 80 37 29 30 35 43 35 81 0 37 -6 50 -34 78 -27 27 -42 34 -72 34 -22 -1 -50
-7 -65 -15z m111 -69 c15 -45 0 -82 -37 -89 -41 -8 -73 16 -73 55 0 42 25 68
66 68 28 0 34 -5 44 -34z"/>
<path d="M5170 3845 c0 -106 1 -115 19 -115 24 0 31 19 31 83 1 44 2 49 12 32
7 -11 16 -25 22 -32 6 -6 24 -28 40 -47 45 -57 63 -49 70 32 3 37 4 85 1 107
-2 22 -4 44 -4 48 -1 5 -11 7 -23 5 -20 -3 -23 -10 -26 -55 -2 -29 -7 -53 -12
-53 -6 0 -21 17 -34 38 -33 52 -54 72 -77 72 -18 0 -19 -8 -19 -115z"/>
<path d="M5484 3947 c-2 -7 -3 -58 -2 -113 l3 -99 61 -3 c49 -2 65 1 87 18 27
22 38 72 17 85 -5 3 -9 27 -8 52 0 34 -4 50 -18 60 -24 18 -133 18 -140 0z
m113 -54 c2 -6 -5 -17 -17 -23 -24 -13 -50 1 -50 27 0 18 61 14 67 -4z m-2
-88 c0 -13 -8 -21 -24 -23 -28 -4 -46 11 -37 33 9 25 61 16 61 -10z"/>
<path d="M5750 3953 c-37 -16 -70 -70 -70 -115 0 -37 26 -88 45 -88 8 0 15 -4
15 -10 0 -5 23 -10 50 -10 28 0 50 4 50 9 0 5 8 11 18 13 10 3 26 22 36 43 37
77 -4 154 -85 161 -24 2 -51 1 -59 -3z m95 -76 c17 -32 17 -35 1 -59 -43 -65
-133 -29 -110 44 11 34 27 47 60 48 25 0 34 -6 49 -33z"/>
<path d="M5971 3873 c-45 -121 -49 -143 -23 -143 11 0 30 11 41 25 16 21 25
24 48 19 15 -4 34 -16 41 -26 7 -10 22 -18 32 -18 37 0 35 12 -20 135 -5 11
-16 37 -24 58 -11 28 -21 37 -38 37 -21 0 -28 -12 -57 -87z m78 -45 c1 -5 -8
-8 -19 -8 -22 0 -26 20 -8 38 10 10 14 9 20 -5 3 -10 7 -21 7 -25z"/>
<path d="M6124 3945 c-8 -21 4 -35 32 -35 24 0 24 -1 24 -91 0 -88 1 -90 23
-87 21 3 22 8 25 91 3 82 4 87 25 87 31 0 51 15 44 34 -9 22 -165 24 -173 1z"/>
<path d="M6417 3953 c-4 -3 -7 -55 -7 -115 l0 -108 25 0 c22 0 25 4 25 33 0
19 3 37 6 40 10 9 44 -12 44 -27 0 -17 33 -46 53 -46 27 0 28 16 1 55 -25 37
-25 37 -5 52 28 19 28 76 1 103 -15 15 -33 20 -78 20 -32 0 -62 -3 -65 -7z
m102 -42 c22 -14 4 -51 -25 -51 -20 0 -24 5 -24 30 0 31 19 40 49 21z"/>
<path d="M6693 3948 c-5 -7 -20 -42 -33 -78 -12 -36 -29 -79 -36 -97 -18 -41
-18 -43 10 -43 14 0 30 10 40 25 11 17 26 25 46 25 20 0 35 -8 46 -25 16 -24
48 -33 58 -17 6 10 -25 106 -35 110 -5 2 -11 19 -15 38 -3 19 -10 34 -14 34
-4 0 -10 9 -13 20 -6 22 -39 27 -54 8z m47 -114 c0 -8 -9 -14 -21 -14 -15 0
-19 4 -15 16 3 9 6 20 6 26 0 6 6 6 15 -2 8 -7 15 -19 15 -26z"/>
<path d="M6875 3924 c-35 -34 -37 -39 -33 -85 9 -90 91 -135 167 -91 33 18 38
31 20 49 -8 8 -19 7 -39 -4 -39 -19 -76 -8 -88 27 -20 56 40 114 86 84 24 -16
52 -13 52 6 0 26 -41 50 -84 50 -37 0 -50 -6 -81 -36z"/>
<path d="M7077 3953 c-4 -3 -7 -55 -7 -115 l0 -108 76 0 c72 0 75 1 72 23 -3
19 -10 22 -51 25 -43 3 -48 5 -45 25 2 17 10 22 36 23 19 1 38 6 44 12 18 18
-1 31 -36 25 -29 -4 -35 -2 -41 17 -9 28 8 40 58 40 30 0 37 4 37 20 0 18 -7
20 -68 20 -38 0 -72 -3 -75 -7z"/>
</g>
</svg>
