<svg version="1.1" id="Layer_1" xmlns="http://www.w3.org/2000/svg" xmlns:xlink="http://www.w3.org/1999/xlink" x="0px" y="0px"
	 width="100%" viewBox="0 0 800 384" enable-background="new 0 0 800 384" xml:space="preserve">
<path fill="#000000" opacity="1.000000" stroke="none" 
	d="
M227.999146,195.298538 
	C215.670853,195.299774 203.839432,195.455109 192.015686,195.221054 
	C187.769394,195.136993 185.881165,196.235931 186.244675,200.800140 
	C186.600677,205.269958 186.604675,209.812790 186.245926,214.282059 
	C185.877518,218.871292 187.810059,219.851913 192.030075,219.824982 
	C217.351791,219.663437 242.675079,219.746643 267.997833,219.750015 
	C275.409241,219.751007 275.409241,219.754318 275.415009,227.236786 
	C275.422821,237.283737 275.422821,237.281891 265.386749,237.281265 
	C241.063568,237.279739 216.739334,237.398239 192.418121,237.179138 
	C187.603882,237.135773 186.126526,238.551804 186.230011,243.379868 
	C186.526230,257.201019 186.224762,271.034088 186.396927,284.859467 
	C186.446457,288.836731 185.374954,290.830597 181.074051,290.372223 
	C178.767990,290.126465 176.386124,290.099762 174.087326,290.377960 
	C168.968994,290.997437 167.733673,288.464386 168.086151,283.932983 
	C169.095215,270.960693 168.424988,257.957825 168.562592,244.968842 
	C168.643707,237.311340 168.543823,237.280945 160.693253,237.277802 
	C135.703690,237.267792 110.714127,237.276611 85.724564,237.264175 
	C78.871590,237.260757 78.829605,237.204910 78.822357,230.232910 
	C78.809280,217.659424 78.856674,219.807648 89.360451,219.764725 
	C113.183441,219.667358 137.007111,219.736038 160.830490,219.731079 
	C167.728409,219.729645 167.824066,219.726334 168.284515,212.665222 
	C168.543762,208.689560 168.451874,204.689438 168.470444,200.700104 
	C168.488174,196.892014 166.995987,195.165146 162.748138,195.219620 
	C145.425095,195.441727 128.095703,195.169968 110.772766,195.396255 
	C106.035652,195.458160 104.470360,194.072235 104.504349,189.190247 
	C104.708458,159.870605 104.650734,130.548615 104.541260,101.227943 
	C104.526878,97.378822 105.327301,95.553917 109.742729,95.567177 
	C154.890152,95.702812 200.038116,95.649582 245.185928,95.664963 
	C246.330231,95.665352 247.474487,95.846710 248.873596,95.965256 
	C250.611755,102.939095 249.236938,109.908752 249.475815,116.808395 
	C250.305634,140.777191 248.796204,164.758667 249.841339,188.728455 
	C250.099884,194.658371 249.490051,195.245316 243.490784,195.296127 
	C238.493896,195.338440 233.496323,195.300980 227.999146,195.298538 
M231.702774,174.150879 
	C231.703720,168.489288 231.637192,162.826553 231.734421,157.166611 
	C231.782150,154.389099 230.630646,153.329376 227.867706,153.333145 
	C194.064560,153.379257 160.261307,153.383133 126.458183,153.329834 
	C123.504654,153.325180 122.231102,154.347595 122.315529,157.406952 
	C122.462448,162.731400 122.586189,168.076706 122.274643,173.387161 
	C122.024803,177.645798 123.708527,178.750153 127.752007,178.720428 
	C149.231735,178.562546 170.713226,178.647568 192.194107,178.647766 
	C203.850403,178.647873 215.506790,178.619598 227.162888,178.666824 
	C229.746033,178.677277 231.944870,178.469894 231.702774,174.150879 
M184.500061,112.298317 
	C165.863586,112.295181 147.225677,112.416191 128.591660,112.200447 
	C124.012543,112.147430 121.799065,113.147240 122.264893,118.225792 
	C122.673538,122.680992 122.570595,127.217468 122.285896,131.692093 
	C122.010109,136.026764 123.546425,137.472458 127.977638,137.446655 
	C148.940399,137.324646 169.904953,137.534912 190.868958,137.595276 
	C202.849457,137.629761 214.831253,137.512344 226.810043,137.660126 
	C230.493378,137.705551 231.886597,136.358124 231.736206,132.687424 
	C231.532028,127.704041 231.486664,122.694450 231.760040,117.717354 
	C231.982529,113.666740 230.669449,112.147575 226.432434,112.216469 
	C212.791473,112.438286 199.144638,112.299103 184.500061,112.298317 
z"/>
<path fill="#000000" opacity="1.000000" stroke="none" 
	d="
M428.000122,154.645416 
	C444.830170,154.647705 461.161499,154.762970 477.489380,154.576187 
	C481.752472,154.527420 483.436279,155.747467 483.326599,160.228668 
	C482.996277,173.725906 484.744202,172.127365 471.748718,172.161316 
	C450.253235,172.217468 428.756561,172.259125 407.262451,172.070923 
	C402.828400,172.032120 401.183258,173.145508 401.222809,177.924332 
	C401.446350,204.917068 401.446808,231.913513 401.228729,258.906311 
	C401.190155,263.678925 402.809875,264.760315 407.263824,264.734955 
	C436.423676,264.568604 465.584961,264.644501 494.745758,264.654297 
	C501.346344,264.656494 501.437225,264.681305 501.355927,271.235077 
	C501.214752,282.616608 503.341217,281.960663 490.715851,281.963318 
	C430.727905,281.975891 370.739990,281.957184 310.752045,281.943085 
	C303.673401,281.941437 303.616241,281.922485 303.670013,274.647766 
	C303.753326,263.378967 302.453094,264.704987 313.427246,264.673492 
	C333.922943,264.614655 354.418976,264.655670 374.914856,264.653259 
	C382.871918,264.652344 382.891846,264.650024 382.892548,256.886475 
	C382.897278,203.563873 382.874603,150.241241 382.905701,96.918655 
	C382.912720,84.880775 382.508148,86.822784 393.077698,86.655205 
	C393.410889,86.649925 393.744232,86.655083 394.077515,86.656158 
	C401.307831,86.679535 401.323242,86.679550 401.327271,94.158882 
	C401.336975,112.155266 401.328491,130.151642 401.332367,148.148026 
	C401.333771,154.622543 401.340363,154.630142 408.004791,154.641174 
	C414.503235,154.651932 421.001648,154.644897 428.000122,154.645416 
z"/>
<path fill="#000000" opacity="1.000000" stroke="none" 
	d="
M617.117188,251.486969 
	C614.329651,254.995789 611.542664,258.102051 609.052734,261.430542 
	C607.012146,264.158295 605.291199,263.964722 602.949219,261.800171 
	C597.569275,256.828033 592.049194,252.006348 586.537476,247.178955 
	C585.321289,246.113693 584.215149,244.781036 582.126282,244.407410 
	C578.609436,249.563400 575.156128,254.811172 571.515503,259.925598 
	C563.739685,270.849335 554.390808,280.269165 544.039124,288.776825 
	C540.605225,291.599060 538.375549,291.313721 536.047485,287.650818 
	C533.746826,284.030975 528.835632,281.252991 528.924744,277.198853 
	C529.013611,273.159912 534.540161,271.641083 537.535156,268.867645 
	C547.113342,259.997986 555.783691,250.390030 562.946289,239.460388 
	C564.483337,237.114883 566.261353,234.879074 567.119690,231.422272 
	C558.018982,224.784164 548.895447,217.860306 539.462280,211.387650 
	C535.932983,208.966003 535.207947,206.789413 536.609802,202.748657 
	C542.335571,186.244141 546.976440,169.408783 551.090637,152.429169 
	C551.524048,150.640182 551.962158,148.890167 551.565674,146.099716 
	C546.444885,146.099716 541.190186,145.896454 535.958984,146.160660 
	C531.337036,146.394089 529.443359,144.929596 529.543152,139.955032 
	C529.769470,128.672760 529.536621,128.750397 541.054932,128.629379 
	C545.850342,128.578995 551.651306,130.523865 555.175659,127.755608 
	C558.717712,124.973473 557.822571,118.861481 558.760742,114.192001 
	C560.461182,105.728310 562.092957,97.246574 563.500000,88.730492 
	C563.993652,85.743134 565.233521,84.753860 568.166260,85.163528 
	C570.957703,85.553452 573.798523,85.672501 576.621582,85.735374 
	C580.644287,85.824974 581.741516,87.694542 580.981018,91.550377 
	C578.860352,102.302994 577.201172,113.150948 574.884888,123.858536 
	C573.954590,128.159363 575.581238,128.736160 579.107544,128.689560 
	C587.434631,128.579498 595.774536,128.909348 604.089111,128.569199 
	C608.972839,128.369385 610.678040,129.583481 610.562744,134.899612 
	C609.899109,165.492538 604.558533,195.070480 592.400330,223.252167 
	C591.014954,226.463394 591.584412,228.341919 594.253540,230.448212 
	C601.441040,236.119949 608.428040,242.046066 615.480713,247.888000 
	C616.497742,248.730453 617.638794,249.558456 617.117188,251.486969 
M558.669373,189.968460 
	C557.722473,192.978409 556.798096,195.995682 555.819946,198.995422 
	C555.279846,200.651611 554.840637,202.396881 556.507324,203.539444 
	C562.612366,207.724792 568.797913,211.792603 574.721436,215.749832 
	C575.617004,215.096222 576.001526,214.961456 576.131226,214.700180 
	C586.332214,194.156113 590.327881,172.032532 592.673157,149.494873 
	C592.962708,146.711594 591.149658,146.160034 588.891846,146.161896 
	C583.904785,146.166046 578.916565,146.214737 573.931152,146.120560 
	C571.302002,146.070908 569.984253,147.295486 569.435547,149.765961 
	C566.483337,163.058319 562.715210,176.135315 558.669373,189.968460 
z"/>
<path fill="#000000" opacity="1.000000" stroke="none" 
	d="
M691.000000,97.729538 
	C699.663818,97.724312 707.830200,97.837685 715.990356,97.662735 
	C719.844482,97.580086 721.113586,99.062386 721.374146,102.908531 
	C721.879517,110.368759 720.328796,116.727837 715.525391,122.795769 
	C707.250122,133.249512 699.293640,143.957306 689.592407,153.149628 
	C686.281067,156.287277 684.731445,159.597260 685.165588,164.129852 
	C685.481873,167.432632 685.425232,170.801010 685.201965,174.117722 
	C684.946167,177.917892 686.073914,179.324371 690.234802,179.200485 
	C701.554626,178.863449 712.892883,179.198883 724.219666,179.013214 
	C728.750183,178.938934 730.395020,180.629471 730.288818,185.190460 
	C729.982544,198.337662 731.567566,196.185883 719.099976,196.325989 
	C709.770752,196.430847 700.432373,196.558228 691.111755,196.255173 
	C686.556641,196.107086 685.063416,197.502213 685.115601,202.159042 
	C685.343262,222.483597 685.230652,242.812134 685.217834,263.139191 
	C685.205200,283.241547 680.279480,288.174561 660.095520,288.288239 
	C653.264648,288.326721 646.416077,287.977325 639.607849,288.368011 
	C634.771179,288.645569 632.500549,286.701294 631.824280,282.180206 
	C631.292236,278.623535 629.177185,275.344208 629.689880,271.687286 
	C631.724121,270.172699 633.779846,270.793091 635.717407,270.792480 
	C643.545410,270.789978 651.379028,271.063477 659.199585,270.844147 
	C664.869690,270.685089 666.443848,268.898499 666.863281,263.172272 
	C667.081848,260.187408 667.027954,257.179901 667.032349,254.182510 
	C667.057190,237.187805 667.066162,220.193039 667.072754,203.198303 
	C667.075500,196.294632 668.645203,196.343796 660.057007,196.350433 
	C647.727478,196.359970 635.395935,196.222275 623.069458,196.413696 
	C619.067810,196.475845 617.409546,195.370209 617.540894,191.095718 
	C617.956909,177.555038 615.618713,179.147125 629.441223,179.058350 
	C640.104187,178.989853 650.770203,178.922623 661.430176,179.115707 
	C665.481567,179.189102 667.253235,177.818619 667.082703,173.664825 
	C666.884705,168.840958 667.248352,163.990097 666.963806,159.174866 
	C666.677063,154.323914 668.139526,150.703003 671.867310,147.356476 
	C680.432983,139.666702 687.880798,130.877899 695.061035,121.888306 
	C696.481445,120.109993 698.186279,118.447533 698.710632,115.967293 
	C696.846619,114.736244 694.802551,115.302139 692.895813,115.297668 
	C672.069031,115.248840 651.242004,115.281387 630.415100,115.266724 
	C623.687073,115.261986 623.606873,115.227577 623.663025,108.704659 
	C623.769287,96.370407 622.095520,97.784966 634.517273,97.742538 
	C653.177979,97.678787 671.839050,97.728439 691.000000,97.729538 
z"/>
</svg>