<svg version="1.1" id="Layer_1" xmlns="http://www.w3.org/2000/svg" xmlns:xlink="http://www.w3.org/1999/xlink" x="0px" y="0px"
	 width="100%" viewBox="0 0 240 272" enable-background="new 0 0 240 272" xml:space="preserve">
<path fill="#000000" opacity="1.000000" stroke="none" 
	d="
M91.317947,166.143341 
	C86.346169,178.354019 86.379578,178.312592 96.237015,186.261856 
	C101.163971,190.235077 105.885941,194.462479 110.813164,198.435364 
	C113.305801,200.445236 113.585167,202.226852 111.301361,204.598831 
	C108.097511,207.926392 105.598915,211.922928 101.518982,215.140976 
	C93.827026,208.438309 86.223221,201.812439 78.795052,195.339645 
	C75.902061,196.366867 75.308235,198.633987 74.190575,200.387665 
	C64.631996,215.385620 53.507904,228.943634 39.330688,239.916412 
	C35.729626,242.703537 33.653736,242.337189 31.340326,238.802719 
	C30.068819,236.860062 28.445292,235.149841 27.008013,233.313278 
	C22.701712,227.810760 22.747145,227.856430 28.367744,223.325134 
	C41.329685,212.875290 52.017200,200.427612 60.945461,186.391098 
	C62.734936,183.577789 62.154572,182.104050 59.649052,180.316620 
	C51.378887,174.416779 43.417225,168.066345 34.968102,162.443390 
	C30.918163,159.748138 30.484072,157.144897 31.970451,152.901535 
	C38.023678,135.620560 42.959435,118.005623 46.963593,100.134171 
	C47.176937,99.181976 47.675808,98.228043 46.436710,96.363457 
	C41.465042,96.363457 35.864643,96.121323 30.296368,96.440178 
	C25.852440,96.694641 24.484547,95.044853 24.630259,90.693810 
	C25.067669,77.632515 22.715086,78.995369 36.337536,78.942833 
	C51.801861,78.883186 51.814285,78.931824 54.567207,63.471107 
	C55.964706,55.622570 57.404297,47.779366 58.628258,39.903198 
	C59.092125,36.918194 60.266319,35.476784 63.468266,35.614185 
	C67.935783,35.805904 72.416176,35.676842 77.187393,37.641655 
	C74.720383,51.161915 72.262489,64.632156 69.663353,78.876488 
	C76.400803,78.876488 82.508118,78.873222 88.615433,78.877678 
	C92.444519,78.880470 96.285210,79.086380 100.099739,78.855316 
	C104.811943,78.569878 106.564270,80.345039 106.398804,85.211845 
	C105.459717,112.833679 101.121025,139.790710 91.317947,166.143341 
M52.033077,147.267395 
	C51.725044,149.554565 48.954758,152.094147 51.699108,154.082504 
	C57.822071,158.518784 64.244843,162.541245 70.524681,166.718475 
	C71.292839,165.788818 71.693336,165.457962 71.899239,165.032852 
	C81.970879,144.240067 85.703766,121.842590 88.508232,99.215492 
	C88.789505,96.946136 87.332314,96.387054 85.403564,96.391212 
	C80.746208,96.401230 76.062973,96.677948 71.438805,96.280830 
	C67.021744,95.901489 65.297615,97.728523 64.422234,101.849464 
	C61.212173,116.961044 56.832939,131.769150 52.033077,147.267395 
z"/>
<path fill="#000000" opacity="1.000000" stroke="none" 
	d="
M165.101974,100.413528 
	C176.226608,89.798729 186.461914,78.911438 195.102997,66.562027 
	C193.382034,64.687767 191.434570,65.442657 189.747498,65.437447 
	C168.256958,65.371078 146.764450,65.243027 125.276718,65.494675 
	C120.161697,65.554588 118.591209,63.897404 118.764786,58.910751 
	C119.161095,47.525322 117.582329,48.080521 129.607513,48.047070 
	C155.261322,47.975708 180.915924,47.758793 206.568619,47.895966 
	C219.397324,47.964565 216.889420,47.927364 217.326065,58.374290 
	C217.509293,62.758160 216.355423,66.333656 213.797546,69.938255 
	C205.487366,81.649094 196.534058,92.825386 186.405151,102.976852 
	C182.585693,106.804810 180.890778,110.686302 181.023010,116.125656 
	C181.355164,129.787720 181.125336,129.795883 194.763107,129.798981 
	C203.259445,129.800919 211.758881,129.928696 220.250778,129.732803 
	C224.421616,129.636581 226.349167,130.952148 226.278046,135.419678 
	C226.054382,149.466888 227.472595,147.145569 214.753433,147.298645 
	C205.258926,147.412933 195.758148,147.475128 186.267822,147.245010 
	C182.316330,147.149216 181.041489,148.537994 181.068771,152.421783 
	C181.206848,172.079025 181.098984,191.737839 181.173874,211.395737 
	C181.191055,215.908203 180.886444,220.375656 180.307861,224.837433 
	C179.346649,232.250031 175.897766,236.434525 168.670776,237.980072 
	C156.485611,240.585907 144.107132,238.980057 131.812607,239.209488 
	C130.396027,239.235931 129.163651,238.646881 128.737595,237.138992 
	C127.396591,232.392868 125.548660,227.762131 125.082680,222.949493 
	C127.066902,221.181534 129.150833,221.766678 131.077011,221.769821 
	C138.738342,221.782364 146.404190,222.090149 154.059341,221.908844 
	C160.807388,221.748978 162.698227,219.732727 162.726410,213.107361 
	C162.812851,192.783188 162.720901,172.458115 162.858871,152.134476 
	C162.884140,148.413406 161.546249,147.219528 157.885345,147.263962 
	C144.726318,147.423706 131.561707,147.179962 118.404518,147.402527 
	C114.012848,147.476822 112.564529,145.992798 112.682541,141.630341 
	C113.047783,128.129105 111.093979,129.852798 124.265381,129.773727 
	C135.260223,129.707703 146.260941,129.569595 157.248550,129.860123 
	C161.760498,129.979431 163.070160,128.364822 162.855148,124.078217 
	C162.563446,118.262497 162.818649,112.420311 162.796494,106.589630 
	C162.788040,104.363510 162.982040,102.247719 165.101974,100.413528 
z"/>
</svg>