<svg version="1.1" id="Layer_1" xmlns="http://www.w3.org/2000/svg" xmlns:xlink="http://www.w3.org/1999/xlink" x="0px" y="0px"
	 width="100%" viewBox="0 0 480 288" enable-background="new 0 0 480 288" xml:space="preserve">
<path fill="#000000" opacity="1.000000" stroke="none" 
	d="
M300.063965,209.084442 
	C290.506989,224.533844 279.010132,237.785065 265.020599,248.885803 
	C262.054382,251.239517 259.987854,251.633362 257.780975,248.147110 
	C255.393494,244.375595 250.138382,241.576187 250.281311,237.346237 
	C250.430893,232.919785 256.212463,231.144516 259.481262,228.196976 
	C270.085083,218.635208 278.958710,207.702835 286.705078,195.756653 
	C288.575806,192.871674 288.251129,191.212189 285.474731,189.259232 
	C277.029175,183.318405 268.818054,177.042831 260.337860,171.153580 
	C257.234924,168.998672 256.429016,166.965256 257.699768,163.262573 
	C263.372375,146.733887 268.154572,129.933090 272.143707,112.913727 
	C272.591400,111.003479 272.904633,109.061699 273.481781,106.100395 
	C267.725159,106.100395 262.474091,106.135941 257.223724,106.091110 
	C251.103683,106.038857 250.687729,105.664085 250.723969,99.533638 
	C250.798477,86.925255 249.343277,88.867119 261.632263,88.673058 
	C263.298096,88.646744 264.965515,88.702225 266.630859,88.663139 
	C279.110413,88.370285 276.683807,90.977432 279.506592,77.733421 
	C281.514130,68.314598 283.068512,58.793961 284.610352,49.283939 
	C285.160217,45.892307 286.635529,44.535816 289.999725,45.382236 
	C290.480438,45.503189 290.987610,45.530872 291.484985,45.572124 
	C303.449493,46.564518 303.375885,46.549110 301.003174,58.456188 
	C299.064972,68.182671 297.330109,77.949677 295.464844,87.913818 
	C300.108307,89.331116 304.435669,88.527100 308.683075,88.632805 
	C314.677887,88.781990 320.687683,88.864906 326.674835,88.603561 
	C330.831573,88.422119 332.306366,90.008476 332.164642,94.094612 
	C331.511200,112.930908 329.124786,131.523590 324.824310,149.875061 
	C322.120667,161.412598 318.569397,172.676361 313.525574,183.403366 
	C312.089264,186.458069 312.757446,188.220062 315.211700,190.176041 
	C322.245422,195.781693 329.067200,201.653992 336.121490,207.232773 
	C339.061523,209.557861 339.185730,211.510345 336.592072,214.123596 
	C334.369202,216.363205 332.305450,218.791702 330.406647,221.313828 
	C328.223022,224.214371 326.442963,223.845215 323.951508,221.527985 
	C317.504791,215.532028 310.825836,209.785828 304.362915,204.049362 
	C301.777405,205.078293 301.431763,207.274902 300.063965,209.084442 
M307.672943,146.327301 
	C310.907990,133.311264 313.277130,120.167137 314.114349,106.125931 
	C307.578766,106.125931 301.610352,106.277313 295.654938,106.064804 
	C292.471436,105.951210 291.179504,107.441452 290.545135,110.230247 
	C286.778748,126.787437 282.149597,143.108475 276.973633,159.275986 
	C276.493805,160.774750 275.974030,162.296753 277.512329,163.353271 
	C283.873291,167.722076 290.292633,172.005859 296.899506,176.461807 
	C301.685822,166.549683 304.863556,156.934052 307.672943,146.327301 
z"/>
<path fill="#000000" opacity="1.000000" stroke="none" 
	d="
M430.999634,156.353210 
	C424.500183,156.354904 418.485199,156.621384 412.506012,156.273102 
	C407.814087,155.999817 406.157227,157.365753 406.220520,162.344742 
	C406.487457,183.339783 406.354309,204.340240 406.321136,225.338654 
	C406.293823,242.639557 400.983063,248.018143 383.608582,248.252457 
	C375.444244,248.362549 367.275757,248.170181 359.111633,248.288513 
	C355.910034,248.334915 354.430908,247.094681 353.550537,243.955719 
	C349.783020,230.522064 349.683014,230.578232 363.767914,230.927002 
	C368.764099,231.050690 373.769836,231.156906 378.761932,230.991531 
	C386.376892,230.739273 388.501892,228.589447 388.611877,220.928055 
	C388.748199,211.430649 388.653534,201.929916 388.656006,192.430618 
	C388.658630,182.264694 388.464264,172.093353 388.748047,161.935333 
	C388.873383,157.448151 387.235504,156.209610 382.953369,156.279877 
	C369.957886,156.493027 356.954468,156.217224 343.958740,156.422531 
	C339.763916,156.488800 338.454224,154.992935 338.601318,150.917480 
	C339.054077,138.371704 336.330627,139.070160 350.266663,139.041183 
	C361.265808,139.018311 372.267517,138.907272 383.262939,139.110886 
	C387.376068,139.187057 389.341034,137.770248 388.633881,133.640335 
	C386.017365,118.359802 390.978485,106.515297 403.241821,96.778847 
	C409.252075,92.006981 413.521301,85.033829 418.525726,79.013084 
	C419.218231,78.179962 419.606140,77.093689 420.162506,76.074287 
	C418.026642,74.779739 415.987061,75.298309 414.061371,75.294090 
	C393.063019,75.248070 372.062836,75.122955 351.067261,75.368317 
	C345.958679,75.428017 344.423676,73.755623 344.585480,68.756783 
	C344.981201,56.530415 343.295532,57.770344 355.587677,57.745655 
	C382.251953,57.692097 408.916382,57.685989 435.580719,57.710907 
	C442.286987,57.717175 441.939423,57.831135 442.429352,64.266602 
	C442.977448,71.466637 441.057251,77.391983 436.542664,83.111488 
	C429.210419,92.400650 422.279297,102.055969 413.640564,110.154694 
	C408.098816,115.350014 405.692657,120.918686 406.175049,128.573654 
	C406.899689,140.072510 404.709656,138.976395 416.664917,139.031052 
	C426.164062,139.074493 435.665131,139.174683 445.161987,139.029648 
	C449.410187,138.964767 451.563080,140.049591 451.423187,144.928528 
	C451.036041,158.432022 452.804993,156.118088 439.997284,156.344391 
	C437.165497,156.394440 434.332153,156.352570 430.999634,156.353210 
z"/>
<path fill="#000000" opacity="1.000000" stroke="none" 
	d="
M52.286106,251.100067 
	C48.495968,249.760498 49.666862,246.834427 49.661880,244.566727 
	C49.586128,210.086136 49.609455,175.605331 49.609623,141.124573 
	C49.609638,137.490509 49.609627,133.856445 49.609627,128.884201 
	C41.208183,138.292114 34.456310,147.516800 25.262222,155.372009 
	C22.503990,149.641632 21.254696,144.018372 19.881002,138.478729 
	C19.343460,136.311005 21.407881,134.899597 22.697777,133.439407 
	C38.354210,115.715927 51.084328,96.095505 61.021049,74.644241 
	C64.873199,66.328278 68.362144,57.865170 71.134323,49.132885 
	C72.217041,45.722343 73.556885,44.690907 77.231102,46.209038 
	C89.847702,51.422031 89.935455,51.294708 85.282845,64.085983 
	C81.006065,75.843987 75.695152,87.139626 69.568039,98.035698 
	C67.952568,100.908539 67.268440,103.761917 67.272614,107.035095 
	C67.330376,152.343063 67.304008,197.651154 67.297691,242.959213 
	C67.296539,251.236191 67.295441,251.241623 59.249744,251.237946 
	C57.084808,251.236969 54.919891,251.191895 52.286106,251.100067 
z"/>
<path fill="#000000" opacity="1.000000" stroke="none" 
	d="
M86.576118,131.555939 
	C77.674873,125.185898 77.700821,125.204674 83.909180,116.624100 
	C97.364830,98.027016 104.285782,76.821579 108.726303,54.599743 
	C110.531166,45.567612 108.140297,44.730679 119.391258,46.570114 
	C127.398682,47.879257 127.447250,47.688362 125.996696,55.446659 
	C124.904892,61.286163 123.762810,67.116272 122.663307,72.845352 
	C125.092918,74.584198 127.499641,73.955986 129.751160,73.959259 
	C156.887024,73.998734 184.023407,74.046227 211.158524,73.892227 
	C215.853226,73.865578 217.627594,75.333977 217.480072,80.209793 
	C217.337006,84.938118 216.540039,89.444351 215.285263,93.928223 
	C212.547836,103.710228 208.974380,113.199585 205.258682,122.643806 
	C204.232620,125.251762 202.917664,126.377007 200.013397,125.357185 
	C195.826965,123.887138 191.543961,122.692093 186.770599,121.215218 
	C190.695450,111.150291 195.830276,102.188026 198.111923,92.316071 
	C196.584442,90.883957 195.009583,91.374725 193.581497,91.372719 
	C169.771790,91.339279 145.961349,91.438805 122.152931,91.260674 
	C118.157547,91.230782 116.254440,92.571678 114.856384,96.276382 
	C110.196938,108.623421 104.169334,120.217834 95.794334,130.589996 
	C92.752037,134.357773 90.316315,134.855881 86.576118,131.555939 
z"/>
<path fill="#000000" opacity="1.000000" stroke="none" 
	d="
M139.232117,233.613831 
	C144.866669,232.413162 145.659393,228.431717 145.663620,224.019424 
	C145.683517,203.208908 145.675980,182.398346 145.676300,161.587799 
	C145.676559,145.105850 145.766006,128.623001 145.606567,112.142570 
	C145.567856,108.142082 146.736526,106.579796 150.963425,106.568214 
	C163.347427,106.534286 163.348038,106.373169 163.348145,118.959229 
	C163.348434,155.419312 163.331924,191.879425 163.374039,228.339462 
	C163.377914,231.695145 163.139175,234.982925 162.193649,238.199631 
	C160.253479,244.800156 155.832764,248.529007 148.939438,249.258362 
	C138.816422,250.329407 128.654449,249.892761 118.505119,249.945328 
	C115.627838,249.960220 113.734573,248.909134 113.272690,245.837662 
	C113.051292,244.365402 112.581573,242.930756 112.229614,241.477798 
	C109.995041,232.253113 110.106544,231.951035 119.370575,232.992737 
	C125.855927,233.721970 132.323990,233.641953 139.232117,233.613831 
z"/>
<path fill="#000000" opacity="1.000000" stroke="none" 
	d="
M191.772614,170.154877 
	C188.732193,161.638168 185.914398,153.458542 182.822922,145.383667 
	C181.702408,142.456909 181.991653,140.781631 185.174026,139.728378 
	C198.938370,135.172867 196.287796,133.870880 201.320160,146.495804 
	C209.454514,166.902863 215.820312,187.892990 221.455551,209.120178 
	C222.372360,212.573669 221.814606,214.361084 218.417953,215.577927 
	C214.702774,216.908875 211.136932,218.656677 206.824005,220.516983 
	C201.827438,203.499832 197.583710,186.788696 191.772614,170.154877 
z"/>
<path fill="#000000" opacity="1.000000" stroke="none" 
	d="
M101.120667,170.202591 
	C104.199371,161.172928 107.010376,152.462784 108.834953,143.485214 
	C109.536194,140.034836 111.049454,138.804794 114.665115,139.618042 
	C127.950508,142.606201 126.816498,140.164948 123.745262,153.057465 
	C118.433456,175.355408 109.962837,196.470001 99.324097,216.759399 
	C97.391396,220.445282 95.707596,221.022781 92.073692,218.780624 
	C81.602890,212.320007 81.510925,212.467377 87.268486,201.600525 
	C92.576729,191.581741 97.104393,181.218674 101.120667,170.202591 
z"/>
</svg>