<svg version="1.1" id="Layer_1" xmlns="http://www.w3.org/2000/svg" xmlns:xlink="http://www.w3.org/1999/xlink" x="0px" y="0px"
	 width="100%" viewBox="0 0 240 272" enable-background="new 0 0 240 272" xml:space="preserve">
<path fill="#000000" opacity="1.000000" stroke="none" 
	d="
M74.373245,154.000076 
	C74.373528,183.656616 74.256950,212.814026 74.482750,241.968796 
	C74.522285,247.074005 72.986015,248.582932 67.957794,248.394760 
	C54.790184,247.901962 56.739582,249.978516 56.704281,236.813278 
	C56.610462,201.825684 56.666218,166.837723 56.662518,131.849899 
	C56.662346,130.209457 56.662502,128.569000 56.662502,125.890778 
	C48.620167,135.162704 41.624573,144.136185 32.581261,152.204620 
	C29.706478,146.341751 28.485790,140.550049 27.113842,134.837433 
	C26.735575,133.262375 28.178492,132.124207 29.164129,131.013596 
	C51.230175,106.149788 67.669807,78.015778 78.162109,46.458389 
	C79.543564,42.303421 81.224770,40.910450 85.699738,43.044258 
	C98.710587,49.248253 97.726967,46.165428 93.052399,59.681767 
	C88.911171,71.655968 83.648048,83.185066 77.303246,94.167038 
	C75.228249,97.758568 74.267876,101.356308 74.308617,105.517334 
	C74.465210,121.510254 74.372459,137.505615 74.373245,154.000076 
z"/>
<path fill="#000000" opacity="1.000000" stroke="none" 
	d="
M166.000076,70.662239 
	C184.155350,70.664803 201.812164,70.795937 219.464798,70.582558 
	C224.015274,70.527550 225.507004,71.924744 225.478424,76.529488 
	C225.442535,82.314850 224.053146,87.697464 222.478165,93.133888 
	C219.927521,101.938004 216.630890,110.466827 213.267303,118.980354 
	C212.143005,121.826035 210.510315,122.940796 207.522003,121.849785 
	C203.492279,120.378571 199.103714,119.923195 194.774704,117.368866 
	C198.542191,107.906296 203.551804,98.909355 205.943481,89.075737 
	C204.275436,87.863785 202.731125,88.217476 201.278290,88.215553 
	C177.460342,88.184074 153.641739,88.267715 129.824997,88.092644 
	C125.892990,88.063744 123.849808,89.249329 122.443878,93.009125 
	C117.756592,105.544083 111.551758,117.267708 103.020943,127.707336 
	C100.419334,130.891068 98.352310,131.483154 94.788841,128.892197 
	C85.113129,121.857109 85.009171,122.019081 92.034431,112.215347 
	C105.623970,93.251160 112.346390,71.590004 116.597656,49.015263 
	C117.957779,41.792816 117.672211,41.739044 124.781738,42.623634 
	C134.593719,43.844471 134.666443,43.854740 133.284897,53.636730 
	C132.728210,57.578327 132.069138,61.552719 130.922501,65.350929 
	C129.686584,69.444893 130.840759,70.780235 135.020767,70.712280 
	C145.178116,70.547173 155.339996,70.661064 166.000076,70.662239 
z"/>
<path fill="#000000" opacity="1.000000" stroke="none" 
	d="
M171.328598,224.873917 
	C171.571457,228.730362 170.889908,232.003769 169.986710,235.200104 
	C168.115311,241.822723 163.713394,245.475784 156.812012,246.347153 
	C146.514908,247.647263 136.187057,246.860367 125.875404,247.086777 
	C123.703781,247.134476 121.770668,246.573044 121.210007,244.219528 
	C120.141617,239.734726 118.487183,235.337250 118.643250,230.484253 
	C121.853012,229.089386 125.022812,229.684525 128.069122,230.124710 
	C134.050201,230.988968 140.039200,230.572983 146.024216,230.639435 
	C149.663956,230.679840 151.879715,228.859039 152.798828,225.257690 
	C153.509109,222.474640 153.662003,219.688187 153.660721,216.848282 
	C153.644501,181.038834 153.644440,145.229385 153.654434,109.419930 
	C153.656250,102.881134 153.685501,102.886993 160.375763,102.867340 
	C172.976532,102.830322 171.302826,102.408257 171.318176,113.966286 
	C171.367065,150.774948 171.332550,187.583725 171.328598,224.873917 
z"/>
<path fill="#000000" opacity="1.000000" stroke="none" 
	d="
M201.933929,173.936676 
	C198.103531,163.057144 194.507980,152.512909 190.639755,142.069702 
	C189.428680,138.800110 190.061447,137.234406 193.425385,136.212479 
	C206.932770,132.109070 203.868698,129.908859 209.319992,143.354477 
	C217.639191,163.873734 223.865982,185.073944 229.550003,206.451950 
	C230.446503,209.823715 229.590210,211.487732 226.513657,212.486526 
	C225.568130,212.793503 224.670700,213.251221 223.756653,213.652161 
	C214.539688,217.695374 214.638763,217.668213 211.854813,207.804276 
	C208.695511,196.610367 205.335983,185.472961 201.933929,173.936676 
z"/>
<path fill="#000000" opacity="1.000000" stroke="none" 
	d="
M92.069107,203.212646 
	C103.270996,183.348465 111.298515,162.633743 116.277748,140.784943 
	C117.237862,136.571960 118.615860,135.426956 122.991905,136.460052 
	C134.972031,139.288269 134.638718,136.341156 131.399124,149.877686 
	C126.030914,172.308533 117.465553,193.526428 106.777504,213.934769 
	C104.985123,217.357224 103.184875,218.402817 99.890747,215.852737 
	C98.059990,214.435516 96.037025,213.203629 93.954597,212.187637 
	C89.651535,210.088211 88.956245,207.289764 92.069107,203.212646 
z"/>
</svg>